<svg version="1.1" id="Layer_1" xmlns="http://www.w3.org/2000/svg" x="0" y="0" viewBox="0 0 18 18" xml:space="preserve"><script xmlns=""/><style>.st1{fill:#08a61a}</style><g id="New_Symbol_10"><path d="M9 17.55C4.286 17.55.45 13.714.45 9S4.286.45 9 .45 17.55 4.286 17.55 9 13.714 17.55 9 17.55z" fill="#fff"/><path class="st1" d="M9 .9c4.466 0 8.1 3.634 8.1 8.1s-3.634 8.1-8.1 8.1S.9 13.466.9 9 4.534.9 9 .9M9 0C4.029 0 0 4.029 0 9s4.029 9 9 9 9-4.029 9-9-4.029-9-9-9z"/><circle class="st1" cx="9" cy="9" r="5"/></g></svg>